<svg width="24" height="24" viewBox="0 0 24 24" fill="none" xmlns="http://www.w3.org/2000/svg">
<g clip-path="url(#clip0_104_1570)">
<path d="M12.0014 3C16.9729 3 21.0029 7.02994 21.0029 12.0014C21.0047 14.3647 20.0771 16.634 18.4203 18.3192C16.7634 20.0045 14.5103 20.9705 12.1473 21.0088C9.78429 21.0471 7.50102 20.1546 5.79044 18.5239C4.07986 16.8932 3.0792 14.6552 3.0045 12.2931L3 12.0014L3.0036 11.7494C3.13682 6.89492 7.11366 3 12.0014 3ZM12.0014 14.7019C11.781 14.7019 11.5682 14.7828 11.4034 14.9294C11.2387 15.0759 11.1334 15.2777 11.1076 15.4967L11.1013 15.602L11.1076 15.7163C11.1336 15.9351 11.239 16.1368 11.4037 16.2831C11.5684 16.4294 11.7811 16.5102 12.0014 16.5102C12.2218 16.5102 12.4344 16.4294 12.5992 16.2831C12.7639 16.1368 12.8693 15.9351 12.8953 15.7163L12.9016 15.611L12.8953 15.4967C12.8695 15.2777 12.7642 15.0759 12.5995 14.9294C12.4347 14.7828 12.2219 14.7019 12.0014 14.7019ZM13.2328 8.69521C12.694 8.41974 12.0778 8.33456 11.4845 8.45353C10.8911 8.5725 10.3554 8.88861 9.96441 9.35052C9.81533 9.52515 9.73862 9.75015 9.74998 9.97948C9.76134 10.2088 9.8599 10.4251 10.0255 10.5842C10.1911 10.7432 10.4112 10.833 10.6408 10.8351C10.8704 10.8372 11.0921 10.7514 11.2606 10.5954L11.4145 10.4334C11.5473 10.3115 11.7143 10.2332 11.8929 10.2091C12.0716 10.1849 12.2533 10.2161 12.4137 10.2984C12.5866 10.3859 12.7267 10.5268 12.813 10.7003C12.8994 10.8738 12.9275 11.0705 12.8931 11.2612C12.8587 11.4519 12.7637 11.6264 12.6222 11.7588C12.4807 11.8912 12.3002 11.9744 12.1077 11.996L11.8988 12.0068C11.6699 12.032 11.4593 12.144 11.3104 12.3198C11.1616 12.4955 11.0857 12.7216 11.0985 12.9516C11.1113 13.1816 11.2118 13.3979 11.3792 13.556C11.5467 13.7142 11.7684 13.8021 11.9987 13.8017C12.606 13.8036 13.1961 13.6006 13.6739 13.2258C14.1516 12.8509 14.4891 12.3259 14.6317 11.7357C14.7744 11.1454 14.7139 10.5243 14.4601 9.9726C14.2063 9.42092 13.7739 8.9709 13.2328 8.69521Z" fill="#263238"/>
</g>
<defs>
<clipPath id="clip0_104_1570">
<rect width="24" height="24" fill="white"/>
</clipPath>
</defs>
</svg>
