<svg width="171" height="38" viewBox="0 0 171 38" fill="none" xmlns="http://www.w3.org/2000/svg">
<path d="M162.721 31.3839C161.617 33.9279 160.129 35.7279 158.257 36.7839C156.409 37.8399 154.225 38.1879 151.705 37.8279C151.177 37.7559 150.721 37.5999 150.337 37.3599C149.953 37.1439 149.629 36.8679 149.365 36.5319C149.125 36.1959 148.957 35.8359 148.861 35.4519C148.765 35.0679 148.741 34.6719 148.789 34.2639C148.909 33.4479 149.257 32.7639 149.833 32.2119C150.433 31.6839 151.273 31.5159 152.353 31.7079C153.097 31.8519 153.805 31.8159 154.477 31.5999C155.149 31.3839 155.629 30.9999 155.917 30.4479V30.4119L148.573 14.0679C148.333 13.5399 148.213 13.0239 148.213 12.5199C148.237 12.0159 148.345 11.5479 148.537 11.1159C148.729 10.6839 148.993 10.3119 149.329 9.99992C149.689 9.66392 150.109 9.41192 150.589 9.24392C151.045 9.07592 151.525 8.97992 152.029 8.95592C152.533 8.93192 153.001 9.00392 153.433 9.17192C153.889 9.31592 154.297 9.56792 154.657 9.92792C155.017 10.2639 155.305 10.7199 155.521 11.2959L159.661 22.4919L163.477 11.2959C163.669 10.7199 163.945 10.2639 164.305 9.92792C164.665 9.56792 165.061 9.31592 165.493 9.17192C165.949 9.00392 166.417 8.93192 166.897 8.95592C167.377 8.97992 167.857 9.07592 168.337 9.24392C168.793 9.41192 169.189 9.66392 169.525 9.99992C169.885 10.3119 170.149 10.6839 170.317 11.1159C170.509 11.5479 170.605 12.0159 170.605 12.5199C170.605 13.0239 170.497 13.5399 170.281 14.0679L162.721 31.3839Z" fill="current"/>
<path d="M140.372 31.42L139.976 29.08C139.28 29.992 138.416 30.712 137.384 31.24C136.376 31.768 135.224 32.032 133.928 32.032C132.728 32.032 131.6 31.864 130.544 31.528C129.488 31.216 128.552 30.676 127.736 29.908C126.944 29.14 126.308 28.12 125.828 26.848C125.372 25.576 125.144 23.992 125.144 22.096V18.856C125.144 16.96 125.372 15.376 125.828 14.104C126.308 12.832 126.944 11.812 127.736 11.044C128.552 10.276 129.488 9.736 130.544 9.424C131.6 9.088 132.728 8.92 133.928 8.92C134.936 8.92 135.836 9.076 136.628 9.388C137.444 9.676 138.164 10.084 138.788 10.612V4.6C138.788 4 138.884 3.484 139.076 3.052C139.292 2.596 139.568 2.224 139.904 1.936C140.24 1.624 140.624 1.396 141.056 1.252C141.512 1.084 141.98 1 142.46 1C142.94 1 143.396 1.084 143.828 1.252C144.26 1.396 144.644 1.624 144.98 1.936C145.316 2.224 145.58 2.596 145.772 3.052C145.988 3.484 146.096 4 146.096 4.6V31.42H140.372ZM132.56 22.6C132.56 23.224 132.656 23.74 132.848 24.148C133.064 24.556 133.328 24.892 133.64 25.156C133.952 25.42 134.288 25.612 134.648 25.732C135.008 25.828 135.344 25.876 135.656 25.876C135.968 25.876 136.292 25.828 136.628 25.732C136.988 25.612 137.324 25.432 137.636 25.192C137.948 24.952 138.212 24.64 138.428 24.256C138.644 23.848 138.764 23.356 138.788 22.78V18.172C138.764 17.596 138.644 17.116 138.428 16.732C138.212 16.324 137.948 16 137.636 15.76C137.324 15.52 136.988 15.352 136.628 15.256C136.292 15.136 135.968 15.076 135.656 15.076C135.344 15.076 135.008 15.136 134.648 15.256C134.288 15.352 133.952 15.532 133.64 15.796C133.328 16.06 133.064 16.408 132.848 16.84C132.656 17.248 132.56 17.752 132.56 18.352V22.6Z" fill="current"/>
<path d="M116.044 31.42L115.648 29.08C114.952 29.992 114.088 30.712 113.056 31.24C112.048 31.768 110.896 32.032 109.6 32.032C108.4 32.032 107.272 31.864 106.216 31.528C105.16 31.216 104.224 30.676 103.408 29.908C102.616 29.14 101.98 28.12 101.5 26.848C101.044 25.576 100.816 23.992 100.816 22.096V18.856C100.816 16.96 101.044 15.376 101.5 14.104C101.98 12.832 102.616 11.812 103.408 11.044C104.224 10.276 105.16 9.736 106.216 9.424C107.272 9.088 108.4 8.92 109.6 8.92C110.608 8.92 111.508 9.076 112.3 9.388C113.116 9.676 113.836 10.084 114.46 10.612V4.6C114.46 4 114.556 3.484 114.748 3.052C114.964 2.596 115.24 2.224 115.576 1.936C115.912 1.624 116.296 1.396 116.728 1.252C117.184 1.084 117.652 1 118.132 1C118.612 1 119.068 1.084 119.5 1.252C119.932 1.396 120.316 1.624 120.652 1.936C120.988 2.224 121.252 2.596 121.444 3.052C121.66 3.484 121.768 4 121.768 4.6V31.42H116.044ZM108.232 22.6C108.232 23.224 108.328 23.74 108.52 24.148C108.736 24.556 109 24.892 109.312 25.156C109.624 25.42 109.96 25.612 110.32 25.732C110.68 25.828 111.016 25.876 111.328 25.876C111.64 25.876 111.964 25.828 112.3 25.732C112.66 25.612 112.996 25.432 113.308 25.192C113.62 24.952 113.884 24.64 114.1 24.256C114.316 23.848 114.436 23.356 114.46 22.78V18.172C114.436 17.596 114.316 17.116 114.1 16.732C113.884 16.324 113.62 16 113.308 15.76C112.996 15.52 112.66 15.352 112.3 15.256C111.964 15.136 111.64 15.076 111.328 15.076C111.016 15.076 110.68 15.136 110.32 15.256C109.96 15.352 109.624 15.532 109.312 15.796C109 16.06 108.736 16.408 108.52 16.84C108.328 17.248 108.232 17.752 108.232 18.352V22.6Z" fill="current"/>
<path d="M85.3349 32.0319C84.1829 32.0319 83.1029 31.8759 82.0949 31.5639C81.1109 31.2519 80.2469 30.7239 79.5029 29.9799C78.7829 29.2119 78.2069 28.1919 77.7749 26.9199C77.3429 25.6479 77.1269 24.0639 77.1269 22.1679V12.5199C77.1269 11.2719 77.4869 10.3599 78.2069 9.78392C78.9509 9.20792 79.8269 8.91992 80.8349 8.91992C81.8429 8.91992 82.7069 9.20792 83.4269 9.78392C84.1709 10.3599 84.5429 11.2719 84.5429 12.5199V22.5999C84.5429 23.2239 84.6269 23.7399 84.7949 24.1479C84.9869 24.5559 85.2149 24.8919 85.4789 25.1559C85.7669 25.4199 86.0789 25.6119 86.4149 25.7319C86.7509 25.8279 87.0749 25.8759 87.3869 25.8759C87.6749 25.8759 87.9869 25.8279 88.3229 25.7319C88.6589 25.6119 88.9589 25.4319 89.2229 25.1919C89.5109 24.9519 89.7509 24.6399 89.9429 24.2559C90.1349 23.8479 90.2429 23.3559 90.2669 22.7799V12.4839C90.2669 11.2599 90.6149 10.3599 91.3109 9.78392C92.0309 9.20792 92.8949 8.91992 93.9029 8.91992C94.9109 8.91992 95.7749 9.20792 96.4949 9.78392C97.2149 10.3599 97.5749 11.2599 97.5749 12.4839V31.4199H91.8509L91.4549 29.0799C90.7829 29.9919 89.9189 30.7119 88.8629 31.2399C87.8069 31.7679 86.6309 32.0319 85.3349 32.0319Z" fill="current"/>
<path d="M73.4639 11.0439C73.4639 12.1719 73.1759 13.2159 72.5999 14.1759C72.0479 15.1359 71.1959 15.9399 70.0439 16.5879C71.6039 17.2119 72.7439 18.0879 73.4639 19.2159C74.1839 20.3199 74.5439 21.5799 74.5439 22.9959V23.0319C74.5439 24.5679 74.2559 25.8759 73.6799 26.9559C73.1279 28.0119 72.3479 28.8759 71.3399 29.5479C70.3559 30.1959 69.1799 30.6759 67.8119 30.9879C66.4679 31.2759 64.9919 31.4199 63.3839 31.4199H57.1199C56.0399 31.4199 55.1399 31.3239 54.4199 31.1319C53.6999 30.9159 53.1239 30.5799 52.6919 30.1239C52.2599 29.6679 51.9479 29.0799 51.7559 28.3599C51.5879 27.6399 51.5039 26.7639 51.5039 25.7319V8.12794C51.5039 7.09594 51.5879 6.21994 51.7559 5.49994C51.9479 4.77994 52.2599 4.19194 52.6919 3.73594C53.1239 3.27994 53.6999 2.95594 54.4199 2.76394C55.1399 2.54794 56.0399 2.43994 57.1199 2.43994H62.3759C64.0319 2.43994 65.5319 2.63194 66.8759 3.01594C68.2439 3.37594 69.4079 3.91594 70.3679 4.63594C71.3519 5.33194 72.1079 6.20794 72.6359 7.26394C73.1879 8.29594 73.4639 9.48394 73.4639 10.8279V11.0439ZM58.8119 19.8639V24.2559C58.8119 24.6879 58.8839 24.9759 59.0279 25.1199C59.1719 25.2399 59.4479 25.2999 59.8559 25.2999H63.8159C65.0159 25.2999 65.8799 25.0359 66.4079 24.5079C66.9599 23.9559 67.2359 23.3559 67.2359 22.7079V22.4559C67.2359 21.8079 66.9599 21.2199 66.4079 20.6919C65.8799 20.1399 65.0159 19.8639 63.8159 19.8639H58.8119ZM59.8559 8.55994C59.4479 8.55994 59.1719 8.63194 59.0279 8.77594C58.8839 8.89594 58.8119 9.17194 58.8119 9.60394V13.9959H62.7359C63.3359 13.9959 63.8519 13.9239 64.2839 13.7799C64.7159 13.6119 65.0639 13.4079 65.3279 13.1679C65.6159 12.9039 65.8199 12.6279 65.9399 12.3399C66.0839 12.0279 66.1559 11.7159 66.1559 11.4039V11.1519C66.1559 10.5039 65.8799 9.91594 65.3279 9.38794C64.7999 8.83594 63.9359 8.55994 62.7359 8.55994H59.8559Z" fill="current"/>
<path d="M36.9706 15.5799H35.7826C34.6546 15.5799 33.8386 15.2799 33.3346 14.6799C32.8546 14.0799 32.6146 13.3959 32.6146 12.6279C32.6146 12.2679 32.6626 11.9079 32.7586 11.5479C32.8786 11.1879 33.0586 10.8639 33.2986 10.5759C33.5626 10.2879 33.8986 10.0599 34.3066 9.8919C34.7146 9.6999 35.2066 9.6039 35.7826 9.6039H36.9706V5.8599C36.9706 5.2599 37.0666 4.7319 37.2586 4.2759C37.4746 3.8199 37.7506 3.4479 38.0866 3.1599C38.4226 2.8719 38.7946 2.6559 39.2026 2.5119C39.6346 2.3679 40.0786 2.2959 40.5346 2.2959C40.9906 2.2959 41.4226 2.3679 41.8306 2.5119C42.2626 2.6559 42.6466 2.8719 42.9826 3.1599C43.3186 3.4479 43.5826 3.8199 43.7746 4.2759C43.9906 4.7319 44.0986 5.2599 44.0986 5.8599V9.6039H46.2226C46.7986 9.6039 47.2786 9.6999 47.6626 9.8919C48.0706 10.0599 48.3946 10.2879 48.6346 10.5759C48.8986 10.8639 49.0906 11.1879 49.2106 11.5479C49.3306 11.9079 49.3906 12.2679 49.3906 12.6279C49.3906 13.3959 49.1386 14.0799 48.6346 14.6799C48.1546 15.2799 47.3506 15.5799 46.2226 15.5799H44.0986V24.5079C44.0986 25.0599 44.2066 25.4199 44.4226 25.5879C44.6626 25.7559 44.9386 25.8519 45.2506 25.8759C45.5146 25.8999 45.7546 25.8879 45.9706 25.8399C46.1866 25.7679 46.4746 25.7319 46.8346 25.7319C47.4346 25.7319 47.9626 25.9119 48.4186 26.2719C48.8746 26.6319 49.1626 27.1119 49.2826 27.7119C49.4506 28.4559 49.3906 29.1159 49.1026 29.6919C48.8386 30.2679 48.4546 30.7239 47.9506 31.0599C47.5426 31.3239 47.0266 31.5519 46.4026 31.7439C45.7786 31.9359 45.1546 32.0319 44.5306 32.0319C43.3306 32.0319 42.2626 31.8999 41.3266 31.6359C40.3906 31.3719 39.5986 30.9519 38.9506 30.3759C38.3026 29.7999 37.8106 29.0439 37.4746 28.1079C37.1386 27.1719 36.9706 26.0199 36.9706 24.6519V15.5799Z" fill="current"/>
<path d="M23.204 12.772C23.204 11.524 23.564 10.612 24.284 10.036C25.028 9.46 25.904 9.172 26.912 9.172C27.92 9.172 28.784 9.46 29.504 10.036C30.248 10.612 30.62 11.524 30.62 12.772V31.42H23.204V12.772ZM23.168 4.312C23.168 3.136 23.54 2.296 24.284 1.792C25.028 1.264 25.904 1 26.912 1C27.92 1 28.796 1.264 29.54 1.792C30.284 2.296 30.656 3.136 30.656 4.312C30.656 4.912 30.548 5.428 30.332 5.86C30.14 6.268 29.876 6.604 29.54 6.868C29.204 7.132 28.808 7.324 28.352 7.444C27.896 7.564 27.416 7.624 26.912 7.624C26.408 7.624 25.928 7.564 25.472 7.444C25.016 7.324 24.62 7.132 24.284 6.868C23.948 6.604 23.672 6.268 23.456 5.86C23.264 5.428 23.168 4.912 23.168 4.312Z" fill="current"/>
<path d="M0 31.4199V8.12794C0 7.09594 0.084 6.21994 0.252 5.49994C0.444 4.77994 0.756 4.19194 1.188 3.73594C1.62 3.27994 2.196 2.95594 2.916 2.76394C3.636 2.54794 4.536 2.43994 5.616 2.43994H17.604C18.132 2.43994 18.576 2.53594 18.936 2.72794C19.296 2.91994 19.596 3.17194 19.836 3.48394C20.076 3.79594 20.244 4.14394 20.34 4.52794C20.46 4.91194 20.52 5.28394 20.52 5.64394C20.52 6.00394 20.46 6.37594 20.34 6.75994C20.244 7.11994 20.076 7.45594 19.836 7.76794C19.62 8.05594 19.32 8.29594 18.936 8.48794C18.576 8.65594 18.132 8.73994 17.604 8.73994H8.46C8.052 8.73994 7.776 8.81194 7.632 8.95594C7.488 9.07594 7.416 9.35194 7.416 9.78394V14.3199H16.668C17.196 14.3199 17.64 14.4159 18 14.6079C18.36 14.7999 18.66 15.0519 18.9 15.3639C19.14 15.6759 19.308 16.0239 19.404 16.4079C19.524 16.7919 19.584 17.1639 19.584 17.5239C19.584 17.8839 19.524 18.2559 19.404 18.6399C19.308 18.9999 19.14 19.3359 18.9 19.6479C18.684 19.9359 18.384 20.1759 18 20.3679C17.64 20.5359 17.196 20.6199 16.668 20.6199H7.416V31.4199H0Z" fill="current"/>
</svg>
